<svg xmlns="http://www.w3.org/2000/svg" width="24" height="24" viewBox="0 0 24 24">
  <g id="Group_565" data-name="Group 565" transform="translate(-5873 905)">
    <rect id="Rectangle_358" data-name="Rectangle 358" width="24" height="24" transform="translate(5873 -905)" fill="none"/>
    <path id="Path_213" data-name="Path 213" d="M24.827,53.389a9.947,9.947,0,0,0-1.944-2.7,9.05,9.05,0,0,0-12.889,0,9.947,9.947,0,0,0-1.944,2.7.563.563,0,0,0,0,.457,9.946,9.946,0,0,0,1.944,2.7,9.051,9.051,0,0,0,12.889,0,9.946,9.946,0,0,0,1.944-2.7A.563.563,0,0,0,24.827,53.389Zm-8.389-2.3a2.531,2.531,0,1,1-2.531,2.531A2.531,2.531,0,0,1,16.438,51.086Z" transform="translate(5869 -946.992)" fill="#acacac"/>
  </g>
</svg>
