<svg id="svgexport-10_2_" data-name="svgexport-10 (2)" xmlns="http://www.w3.org/2000/svg" width="31.981" height="31.981" viewBox="0 0 31.981 31.981">
  <path id="Path_41087" data-name="Path 41087" d="M31.981,15.991A15.991,15.991,0,1,1,15.991,0,15.99,15.99,0,0,1,31.981,15.991Zm0,0" fill="#4a7aff"/>
  <path id="Path_41088" data-name="Path 41088" d="M151.943,102.573A15.99,15.99,0,0,0,167.232,86.6c0-.062,0-.124,0-.186l-11.1-11.1-11.868,12.4,6.594,6.594-3.04,4.134Zm0,0" transform="translate(-135.251 -70.608)" fill="#0e60cb"/>
  <path id="Path_41089" data-name="Path 41089" d="M156.126,71.394v3.621s-4.157-.6-4.157,2.079v2.682h3.755l-.469,4.09h-3.286V94.526h-4.157V83.865l-3.554-.067V79.775h3.487V76.691s-.23-4.588,4.291-5.431A12.081,12.081,0,0,1,156.126,71.394Zm0,0" transform="translate(-135.247 -66.689)" fill="#fff"/>
  <path id="Path_41090" data-name="Path 41090" d="M260.555,75.014V71.393a12.081,12.081,0,0,0-4.09-.134,6.34,6.34,0,0,0-.82.209V94.526h.753V83.865h3.285l.469-4.09H256.4V77.093C256.4,74.411,260.555,75.014,260.555,75.014Zm0,0" transform="translate(-239.677 -66.689)" fill="#dce1eb"/>
</svg>
