<svg xmlns="http://www.w3.org/2000/svg" width="31.987" height="31.987" viewBox="0 0 31.987 31.987">
  <g id="svgexport-7_1_" data-name="svgexport-7 (1)" transform="translate(0 0)">
    <path id="Path_41024" data-name="Path 41024" d="M281.251,211.48H268.176a1.045,1.045,0,0,0-1.045,1.045V216.7a1.045,1.045,0,0,0,1.045,1.045h7.363a9.83,9.83,0,0,1-4.231,4.958l3.14,5.435a15.715,15.715,0,0,0,8.014-13.744,10.6,10.6,0,0,0-.18-2.053A1.05,1.05,0,0,0,281.251,211.48Z" transform="translate(-250.474 -198.306)" fill="#167ee6"/>
    <path id="Path_41025" data-name="Path 41025" d="M48.284,338.729a9.754,9.754,0,0,1-8.438-4.882l-5.435,3.132A16.014,16.014,0,0,0,56.3,342.854v-.007l-3.14-5.435A9.683,9.683,0,0,1,48.284,338.729Z" transform="translate(-32.257 -313.013)" fill="#12b347"/>
    <path id="Path_41026" data-name="Path 41026" d="M264.014,396.221v-.007l-3.139-5.435A9.683,9.683,0,0,1,256,392.1v6.272A16,16,0,0,0,264.014,396.221Z" transform="translate(-240.018 -366.381)" fill="#0f993e"/>
    <path id="Path_41027" data-name="Path 41027" d="M6.272,136.125a9.683,9.683,0,0,1,1.317-4.874l-5.435-3.132a15.954,15.954,0,0,0,0,16.012L7.589,141A9.683,9.683,0,0,1,6.272,136.125Z" transform="translate(0 -120.132)" fill="#ffd500"/>
    <path id="Path_41028" data-name="Path 41028" d="M48.284,6.272A9.711,9.711,0,0,1,54.478,8.5a1.041,1.041,0,0,0,1.4-.063l2.959-2.959a1.053,1.053,0,0,0-.06-1.54A15.992,15.992,0,0,0,34.411,8.021l5.435,3.132A9.754,9.754,0,0,1,48.284,6.272Z" transform="translate(-32.257 0)" fill="#ff4b26"/>
    <path id="Path_41029" data-name="Path 41029" d="M262.194,8.5a1.041,1.041,0,0,0,1.4-.063l2.959-2.959a1.053,1.053,0,0,0-.06-1.54A15.979,15.979,0,0,0,256,0V6.272A9.711,9.711,0,0,1,262.194,8.5Z" transform="translate(-240.024 0)" fill="#d93f21"/>
  </g>
</svg>
