<svg xmlns="http://www.w3.org/2000/svg" width="24.6" height="24.6" viewBox="0 0 24.6 24.6">
  <g id="Group_408" data-name="Group 408" transform="translate(-1529.17 -1140.624)">
    <rect id="Rectangle_55" data-name="Rectangle 55" width="24.6" height="24.6" transform="translate(1529.17 1140.624)" fill="none"/>
    <path id="Path_56" data-name="Path 56" d="M1545.067,1148.25l1.691,3.426a1.193,1.193,0,0,0,.9.651l3.78.549a1.191,1.191,0,0,1,.66,2.031l-2.736,2.667a1.19,1.19,0,0,0-.342,1.054l.646,3.765a1.191,1.191,0,0,1-1.728,1.255l-3.381-1.778a1.192,1.192,0,0,0-1.109,0l-3.381,1.778a1.191,1.191,0,0,1-1.727-1.255l.646-3.765a1.193,1.193,0,0,0-.343-1.054l-2.736-2.667a1.191,1.191,0,0,1,.66-2.031l3.781-.549a1.194,1.194,0,0,0,.9-.651l1.691-3.426A1.19,1.19,0,0,1,1545.067,1148.25Z" transform="translate(-2.529 -2.763)" fill="#fca120"/>
  </g>
</svg>
