<svg xmlns="http://www.w3.org/2000/svg" width="30" height="30" viewBox="0 0 30 30">
  <g id="Group_17" data-name="Group 17" transform="translate(0 -0.5)">
    <g id="Home">
      <rect id="Rectangle_110" data-name="Rectangle 110" width="30" height="30" transform="translate(0 0.5)" fill="none"/>
      <g id="Iconly_Light-outline_Folder" data-name="Iconly/Light-outline/Folder" transform="translate(2.083 2.083)">
        <g id="Folder" transform="translate(2 2)">
          <path id="Folder-2" data-name="Folder" d="M6.8,21.834a6.852,6.852,0,0,1-4.982-1.818A6.85,6.85,0,0,1,0,15.035V6.8A7.649,7.649,0,0,1,1.452,1.74,5.622,5.622,0,0,1,5.953,0H8.062A3.21,3.21,0,0,1,10.62,1.28l.963,1.282a1.632,1.632,0,0,0,1.294.648h2.985c4.075,0,5.972,2.092,5.972,6.582l-.028,5.242a6.856,6.856,0,0,1-1.816,4.981,6.842,6.842,0,0,1-4.976,1.818ZM1.583,6.8v8.235A5.247,5.247,0,0,0,2.937,18.9,5.25,5.25,0,0,0,6.8,20.249h8.214a5.234,5.234,0,0,0,3.856-1.355,5.257,5.257,0,0,0,1.352-3.864l.029-5.241a5.712,5.712,0,0,0-1-3.843A4.218,4.218,0,0,0,15.862,4.8H12.875a3.224,3.224,0,0,1-2.557-1.28L9.355,2.232a1.622,1.622,0,0,0-1.293-.647H5.953C2.89,1.585,1.583,3.144,1.583,6.8Zm4.254,7.686a.792.792,0,0,1-.107-1.577l.107-.008H15.958a.793.793,0,0,1,.107,1.578l-.107.007Z" fill="#191e24"/>
        </g>
      </g>
    </g>
  </g>
</svg>
