<svg id="Group_21" data-name="Group 21" xmlns="http://www.w3.org/2000/svg" width="30" height="30" viewBox="0 0 30 30">
  <g id="Group_17" data-name="Group 17">
    <g id="Home">
      <rect id="Rectangle_110" data-name="Rectangle 110" width="30" height="30" fill="none"/>
      <g id="Iconly_Light-outline_Setting" data-name="Iconly/Light-outline/Setting" transform="translate(2.03 1.979)">
        <g id="Setting" transform="translate(2.499 2)">
          <path id="Setting-2" data-name="Setting" d="M9.789,22.042a2.918,2.918,0,0,1-2.079-.857A2.71,2.71,0,0,1,6.9,19.26l-.01-.163a1.157,1.157,0,0,0-.163-.465,1.233,1.233,0,0,0-.758-.571,1.255,1.255,0,0,0-.314-.041,1.364,1.364,0,0,0-.677.188l-.2.1a2.948,2.948,0,0,1-1.977.141,2.876,2.876,0,0,1-1.731-1.338l-.7-1.188-.093-.176a2.791,2.791,0,0,1,1.134-3.634l.117-.071a1.23,1.23,0,0,0,.544-1.017,1.253,1.253,0,0,0-.662-1.089l-.172-.107A2.79,2.79,0,0,1,.4,6.069l.715-1.153A2.921,2.921,0,0,1,3.625,3.494a2.871,2.871,0,0,1,1.4.366l.147.076a1.192,1.192,0,0,0,.469.105A1.252,1.252,0,0,0,6.908,2.8l.009-.213A2.806,2.806,0,0,1,7.746.831,2.93,2.93,0,0,1,9.789,0H11.15a2.939,2.939,0,0,1,2.074.858,2.753,2.753,0,0,1,.816,1.983L14.049,3a1.125,1.125,0,0,0,.159.457,1.257,1.257,0,0,0,1.075.606,1.345,1.345,0,0,0,.678-.189l.181-.091a2.926,2.926,0,0,1,3.734,1.151l.675,1.149a.841.841,0,0,1,.048.094l.062.123a2.807,2.807,0,0,1-.974,3.531l-.284.175a1.217,1.217,0,0,0-.364.392,1.2,1.2,0,0,0-.129.934,1.256,1.256,0,0,0,.617.766l.184.116A2.823,2.823,0,0,1,20.844,13.8a2.762,2.762,0,0,1-.3,2.157l-.727,1.187-.109.167a2.923,2.923,0,0,1-2.383,1.22,2.841,2.841,0,0,1-1.4-.364l-.151-.076a1.3,1.3,0,0,0-.479-.11h-.008a1.26,1.26,0,0,0-.884.359,1.243,1.243,0,0,0-.367.913l-.009.189a2.884,2.884,0,0,1-2.882,2.6Zm-3.4-5.523a2.862,2.862,0,0,1,1.743,1.309,2.736,2.736,0,0,1,.378,1.126l.022.39a1.251,1.251,0,0,0,1.256,1.1H11.15a1.244,1.244,0,0,0,1.257-1.1l.006-.12a2.815,2.815,0,0,1,.844-2.01,2.912,2.912,0,0,1,2.053-.826h.016a2.991,2.991,0,0,1,1.155.266l.348.175a1.291,1.291,0,0,0,.512.105,1.235,1.235,0,0,0,1.012-.5l.08-.122.71-1.16a1.214,1.214,0,0,0-.334-1.6l-.3-.186a2.822,2.822,0,0,1-1.17-1.611A2.786,2.786,0,0,1,17.629,9.6a2.857,2.857,0,0,1,.874-.923l.177-.109A1.218,1.218,0,0,0,19.2,7.008l-.078-.147-.014-.031-.645-1.1a1.279,1.279,0,0,0-1.1-.625,1.2,1.2,0,0,0-.377.06l-.122.049-.114.057a2.941,2.941,0,0,1-2.186.3,2.892,2.892,0,0,1-1.76-1.3,2.736,2.736,0,0,1-.378-1.126l-.014-.278a1.23,1.23,0,0,0-.357-.9,1.28,1.28,0,0,0-.9-.374H9.789a1.258,1.258,0,0,0-.888.361,1.215,1.215,0,0,0-.359.728l-.015.336A2.867,2.867,0,0,1,4.458,5.367l-.212-.109a1.274,1.274,0,0,0-.624-.164,1.292,1.292,0,0,0-1.108.636L1.8,6.882A1.212,1.212,0,0,0,2.142,8.5l.288.179A2.81,2.81,0,0,1,3.7,11.021a2.844,2.844,0,0,1-1.274,2.347l-.172.106a1.206,1.206,0,0,0-.521,1.557l.061.117.694,1.172a1.252,1.252,0,0,0,.759.59,1.331,1.331,0,0,0,.354.048,1.2,1.2,0,0,0,.476-.094l.12-.058a2.919,2.919,0,0,1,2.19-.288Zm.408-5.5a3.677,3.677,0,1,1,3.676,3.6A3.643,3.643,0,0,1,6.8,11.021Zm1.629,0a2.048,2.048,0,1,0,2.047-2.006A2.03,2.03,0,0,0,8.427,11.021Z" transform="translate(0)" fill="#c8e6f1"/>
        </g>
      </g>
    </g>
  </g>
</svg>
