<svg id="Group_25" data-name="Group 25" xmlns="http://www.w3.org/2000/svg" width="30" height="30" viewBox="0 0 30 30">
  <g id="Group_17" data-name="Group 17">
    <g id="Home">
      <rect id="Rectangle_110" data-name="Rectangle 110" width="30" height="30" fill="none"/>
      <path id="Home-2" data-name="Home" d="M18.5,0H16.088a2.2,2.2,0,0,0-2.167,2.027l-.012.168V5.627a.764.764,0,0,1-.654.745l-.109.012H9.913a.765.765,0,0,1-.75-.648l-.012-.109V2.207a1.26,1.26,0,0,0-.024-.215l-.012-.025L9.1,1.884A2.187,2.187,0,0,0,7.058.011L6.9,0H4.733A4.717,4.717,0,0,0,0,4.44v9.971a3.559,3.559,0,0,0,1.21,2.63l7.541,6.012a4.429,4.429,0,0,0,5.277.145l.2-.145,7.37-5.846a3.605,3.605,0,0,0,1.393-2.554L23,14.412V4.68A4.717,4.717,0,0,0,18.5,0ZM9.732,8.053h3.414a2.456,2.456,0,0,0,2.445-2.246V2.2a.524.524,0,0,1,.424-.515h2.251A3.023,3.023,0,0,1,21.3,4.489l.014.191V14.4a1.937,1.937,0,0,1-.606,1.356l-.157.133-7.384,5.856a2.712,2.712,0,0,1-1.684.581,2.749,2.749,0,0,1-1.512-.448l-.183-.133L2.432,15.865A1.86,1.86,0,0,1,1.7,14.593L1.681,14.4V4.68a3.025,3.025,0,0,1,2.859-3H6.9a.517.517,0,0,1,.532.43l.025.216.013.062V5.627A2.422,2.422,0,0,0,9.732,8.053Z" transform="translate(26.5 27) rotate(180)" fill="#c8e6f1" stroke="rgba(0,0,0,0)" stroke-width="1"/>
    </g>
  </g>
</svg>
