<svg xmlns="http://www.w3.org/2000/svg" xmlns:xlink="http://www.w3.org/1999/xlink" width="80" height="80" viewBox="0 0 80 80">
  <defs>
    <linearGradient id="linear-gradient" x1="0.201" x2="0.778" y2="0.903" gradientUnits="objectBoundingBox">
      <stop offset="0" stop-color="#06f"/>
      <stop offset="0.091" stop-color="#1d63fe"/>
      <stop offset="0.207" stop-color="#3a61fd"/>
      <stop offset="0.336" stop-color="#575efc"/>
      <stop offset="0.456" stop-color="#755cfb"/>
      <stop offset="0.552" stop-color="#9259fa"/>
      <stop offset="0.679" stop-color="#af57f9"/>
      <stop offset="0.816" stop-color="#cc54f8"/>
      <stop offset="1" stop-color="#ea52f8"/>
    </linearGradient>
  </defs>
  <path id="Subtraction_2" data-name="Subtraction 2" d="M40,80a40,40,0,0,1-19.726-5.194,7.328,7.328,0,0,0,3.164.661,9.959,9.959,0,0,0,3.79-.769L57.167,62.729a8.226,8.226,0,0,0,4.144-4.54,13.156,13.156,0,0,0,.639-4.4c0-.157,0-.292,0-.4a5.464,5.464,0,0,0-1.715-3.036,2.79,2.79,0,0,0-1.674-.5,9.591,9.591,0,0,0-3.446.957L22.782,63a9.066,9.066,0,0,0-4.14,4.027,6.409,6.409,0,0,0-.649,5.437,4.42,4.42,0,0,0,1.575,1.927A39.978,39.978,0,0,1,0,40,40.01,40.01,0,0,1,76.856,24.43,39.988,39.988,0,0,1,40,80ZM58.565,26.988a9.591,9.591,0,0,0-3.446.957l-32.337,12.2a9.066,9.066,0,0,0-4.14,4.026,6.407,6.407,0,0,0-.649,5.437c.809,1.905,2.795,3,5.446,3a9.96,9.96,0,0,0,3.79-.769L57.167,39.871a8.223,8.223,0,0,0,4.144-4.54,13.146,13.146,0,0,0,.639-4.4c0-.156,0-.292,0-.4a5.465,5.465,0,0,0-1.715-3.037A2.79,2.79,0,0,0,58.565,26.988ZM57.9,5.057a9.579,9.579,0,0,0-3.446.958l-32.337,12.2a9.064,9.064,0,0,0-4.14,4.027,6.409,6.409,0,0,0-.648,5.437c.809,1.905,2.795,3,5.446,3a9.96,9.96,0,0,0,3.79-.769L56.5,17.941a8.227,8.227,0,0,0,4.143-4.54A13.121,13.121,0,0,0,61.286,9c0-.158,0-.293,0-.405a5.473,5.473,0,0,0-1.714-3.036A2.8,2.8,0,0,0,57.9,5.057Z" fill="url(#linear-gradient)"/>
</svg>
