<svg xmlns="http://www.w3.org/2000/svg" xmlns:xlink="http://www.w3.org/1999/xlink" width="90" height="90" viewBox="0 0 90 90">
  <defs>
    <linearGradient id="linear-gradient" x1="0.5" x2="0.5" y2="0.998" gradientUnits="objectBoundingBox">
      <stop offset="0" stop-color="#00b2ff"/>
      <stop offset="1" stop-color="#006aff"/>
    </linearGradient>
    <filter id="Path_260" x="0" y="0" width="90" height="90" filterUnits="userSpaceOnUse">
      <feOffset dy="3" input="SourceAlpha"/>
      <feGaussianBlur stdDeviation="3" result="blur"/>
      <feFlood flood-opacity="0.161"/>
      <feComposite operator="in" in2="blur"/>
      <feComposite in="SourceGraphic"/>
    </filter>
  </defs>
  <g id="Messenger" transform="translate(9 6)">
    <g transform="matrix(1, 0, 0, 1, -9, -6)" filter="url(#Path_260)">
      <path id="Path_260-2" data-name="Path 260" d="M110.2,78.2c-20.277,0-36,14.851-36,34.93a34.167,34.167,0,0,0,11.287,25.822,2.911,2.911,0,0,1,.99,2.059l.2,6.4a2.891,2.891,0,0,0,4.04,2.554l7.129-3.168a2.871,2.871,0,0,1,1.941-.139,39.168,39.168,0,0,0,10.416,1.386c20.277,0,36-14.851,36-34.911S130.477,78.2,110.2,78.2Z" transform="translate(-65.2 -72.2)" fill="url(#linear-gradient)"/>
    </g>
    <path id="Path_261" data-name="Path 261" d="M145.684,221.474,156.258,204.7a5.406,5.406,0,0,1,7.822-1.446l8.416,6.317a2.178,2.178,0,0,0,2.574,0l11.386-8.634a1.71,1.71,0,0,1,2.475,2.277l-10.574,16.772a5.406,5.406,0,0,1-7.8,1.446l-8.416-6.317a2.178,2.178,0,0,0-2.614,0l-11.366,8.634A1.71,1.71,0,0,1,145.684,221.474Z" transform="translate(-131.308 -176.345)" fill="#fff"/>
  </g>
</svg>
