<svg id="Group_20" data-name="Group 20" xmlns="http://www.w3.org/2000/svg" width="30" height="30" viewBox="0 0 30 30">
  <g id="Group_17" data-name="Group 17">
    <g id="Home">
      <rect id="Rectangle_110" data-name="Rectangle 110" width="30" height="30" fill="none"/>
      <g id="Iconly_Light-outline_Profile" data-name="Iconly/Light-outline/Profile" transform="translate(2.268 2.086)">
        <g id="Profile" transform="translate(4 2)">
          <path id="Profile-2" data-name="Profile" d="M7.093,21.96c-.128,0-.219,0-.3,0l-.153-.006a2.276,2.276,0,0,1-.428-.051,15.84,15.84,0,0,1-2.478-.372l-.272-.059A4.205,4.205,0,0,1,.3,19.376,3.325,3.325,0,0,1,0,18a3.257,3.257,0,0,1,.305-1.39,4.592,4.592,0,0,1,3.4-2.142A17.219,17.219,0,0,1,6.194,14.1c.763-.069,1.538-.1,2.305-.1s1.542.035,2.305.1l.49.043a17.714,17.714,0,0,1,1.99.321c1.835.391,2.92,1.077,3.415,2.158a3.306,3.306,0,0,1,0,2.754c-.492,1.076-1.606,1.778-3.4,2.144l-.5.107a16.153,16.153,0,0,1-2,.269c-.76.067-1.532.1-2.293.1C8.035,22,7.558,21.987,7.093,21.96Zm-.779-6.27a15.969,15.969,0,0,0-2.291.336A3.384,3.384,0,0,0,1.68,17.311,1.605,1.605,0,0,0,1.532,18a1.644,1.644,0,0,0,.147.69c.271.58,1.089,1.023,2.367,1.281l.375.082a15.943,15.943,0,0,0,1.991.274,1.891,1.891,0,0,0,.305.037l.418.007c.456.026.92.039,1.377.039.72,0,1.451-.032,2.174-.1a14.753,14.753,0,0,0,2.3-.347l.239-.052a2.925,2.925,0,0,0,2.1-1.219,1.66,1.66,0,0,0,0-1.385c-.26-.567-1.071-1.012-2.346-1.284a16.017,16.017,0,0,0-2.286-.334l-.013,0c-.717-.065-1.446-.1-2.165-.1S7.041,15.624,6.314,15.691ZM2.86,5.869A5.766,5.766,0,0,1,8.5,0a5.766,5.766,0,0,1,5.644,5.869A5.766,5.766,0,0,1,8.5,11.738,5.766,5.766,0,0,1,2.86,5.869Zm1.532,0A4.2,4.2,0,0,0,8.5,10.145a4.2,4.2,0,0,0,4.112-4.276A4.2,4.2,0,0,0,8.5,1.593,4.2,4.2,0,0,0,4.392,5.869Z" transform="translate(-0.268 -0.086)" fill="#c8e6f1"/>
        </g>
      </g>
    </g>
  </g>
</svg>
